<?xml version="1.0" encoding="UTF-8"?>
<svg width="300" height="300" viewBox="0 0 300 300" version="1.1" xmlns="http://www.w3.org/2000/svg">
    <circle cx="150" cy="150" r="150" fill="#FF5E5B" />
    <g transform="translate(60, 80)" fill="#FFFFFF">
        <path d="M165,47.3c0,8.7-1,15.7-3.5,22.1c-2.1,5.6-5.3,10.4-9.3,14.6c-4.4,4.4-9.4,8-15.3,11.5 c-5.9,3.5-12.2,6.7-19.3,9.8c-0.8,0.3-1.5,0.8-2.5,1.5c-0.5,0.3-1.8,1.3-3.5,2.1c-1.8,0.8-3.3,1.3-4.8,1.3 c-2.1,0-3.9-0.5-5.4-1.8c-1.5-1.3-2.3-2.9-2.3-4.9c0-2.8,1.8-5.1,5.3-7.2c3.5-2.1,7.3-4.4,11.4-6.5c8.8-4.9,14.3-8,16.9-9.5 c11.2-7.5,16.5-18.3,16.8-32.7c-0.5-13.6-7.8-20.4-22.5-20.4H72.2c-9.2,0-16,3.2-20.5,9.6c-3.6,5.1-6.6,13.3-9.4,24.8 c-2.9,11.5-4.3,22.2-4.3,31.4c0,11.4,1.9,19.2,5,24.4c3.7,5.8,10.3,9.2,20.5,9.2h49c5.3,0,8.6,2.7,8.6,7.4c0,2.1-0.8,3.9-2.3,5.2 c-1.5,1.3-3.3,1.8-5.4,1.8H60.3c-14.9,0-25.4-5.5-32.8-15.8C21.3,115.8,18,102.5,18,85.8c0-15.7,3.1-31.9,9.4-49 c4.9-13.3,12.1-19.4,21.9-19.4l101.8,0c9.3,0,17.2,0.7,21.7,9.3C175.5,31.2,165,36.2,165,47.3z"/>
        <ellipse cx="127.1" cy="36.1" rx="12.1" ry="13"/>
    </g>
</svg>
